<mxfile host="app.diagrams.net" modified="2023-01-12T05:05:32.131Z" agent="5.0 (Windows)" version="20.8.3" etag="RqIgCBZI5kRMN4XKwEdN" type="github">
  <diagram id="RDpuNx_bj0rfVb_ecH5R" name="PÃ¡gina-1">
    <mxGraphModel dx="3827" dy="1617" grid="1" gridSize="10" guides="1" tooltips="1" connect="1" arrows="1" fold="1" page="1" pageScale="1" pageWidth="827" pageHeight="1169" math="0" shadow="0">
      <root>
        <mxCell id="0" />
        <mxCell id="1" parent="0" />
        <mxCell id="ZHMwNc2xsVouACLdSVGA-287" value="" style="whiteSpace=wrap;html=1;aspect=fixed;strokeColor=#6c8ebf;strokeWidth=8;fillColor=#dae8fc;" vertex="1" parent="1">
          <mxGeometry x="-70" y="80" width="160" height="160" as="geometry" />
        </mxCell>
        <mxCell id="ZHMwNc2xsVouACLdSVGA-296" value="" style="whiteSpace=wrap;html=1;aspect=fixed;strokeColor=#6c8ebf;strokeWidth=8;fillColor=#dae8fc;" vertex="1" parent="1">
          <mxGeometry x="-50" y="100" width="160" height="160" as="geometry" />
        </mxCell>
        <mxCell id="ZHMwNc2xsVouACLdSVGA-298" value="" style="whiteSpace=wrap;html=1;aspect=fixed;strokeColor=#6c8ebf;strokeWidth=8;fillColor=#dae8fc;" vertex="1" parent="1">
          <mxGeometry x="-30" y="120" width="160" height="160" as="geometry" />
        </mxCell>
        <mxCell id="ZHMwNc2xsVouACLdSVGA-300" value="" style="whiteSpace=wrap;html=1;aspect=fixed;strokeColor=#6c8ebf;strokeWidth=8;fillColor=#dae8fc;" vertex="1" parent="1">
          <mxGeometry x="-10" y="140" width="160" height="160" as="geometry" />
        </mxCell>
        <mxCell id="ZHMwNc2xsVouACLdSVGA-302" value="" style="whiteSpace=wrap;html=1;aspect=fixed;strokeColor=#6c8ebf;strokeWidth=8;fillColor=#dae8fc;" vertex="1" parent="1">
          <mxGeometry x="10" y="160" width="160" height="160" as="geometry" />
        </mxCell>
        <mxCell id="ZHMwNc2xsVouACLdSVGA-304" value="" style="whiteSpace=wrap;html=1;aspect=fixed;strokeColor=#6c8ebf;strokeWidth=8;fillColor=#dae8fc;" vertex="1" parent="1">
          <mxGeometry x="30" y="180" width="160" height="160" as="geometry" />
        </mxCell>
        <mxCell id="ZHMwNc2xsVouACLdSVGA-306" value="" style="whiteSpace=wrap;html=1;aspect=fixed;strokeColor=#6c8ebf;strokeWidth=8;fillColor=#dae8fc;" vertex="1" parent="1">
          <mxGeometry x="50" y="200" width="160" height="160" as="geometry" />
        </mxCell>
        <mxCell id="ZHMwNc2xsVouACLdSVGA-308" value="" style="whiteSpace=wrap;html=1;aspect=fixed;strokeColor=#6c8ebf;strokeWidth=8;fillColor=#dae8fc;" vertex="1" parent="1">
          <mxGeometry x="70" y="220" width="160" height="160" as="geometry" />
        </mxCell>
        <mxCell id="ZHMwNc2xsVouACLdSVGA-310" value="" style="whiteSpace=wrap;html=1;aspect=fixed;strokeColor=#6c8ebf;strokeWidth=8;fillColor=#dae8fc;" vertex="1" parent="1">
          <mxGeometry x="90" y="240" width="160" height="160" as="geometry" />
        </mxCell>
        <mxCell id="ZHMwNc2xsVouACLdSVGA-312" value="" style="whiteSpace=wrap;html=1;aspect=fixed;strokeColor=#6c8ebf;strokeWidth=8;fillColor=#dae8fc;" vertex="1" parent="1">
          <mxGeometry x="110" y="260" width="160" height="160" as="geometry" />
        </mxCell>
        <mxCell id="ZHMwNc2xsVouACLdSVGA-314" value="" style="whiteSpace=wrap;html=1;aspect=fixed;strokeColor=#6c8ebf;strokeWidth=8;fillColor=#dae8fc;" vertex="1" parent="1">
          <mxGeometry x="130" y="280" width="160" height="160" as="geometry" />
        </mxCell>
        <mxCell id="ZHMwNc2xsVouACLdSVGA-316" value="" style="whiteSpace=wrap;html=1;aspect=fixed;strokeColor=#6c8ebf;strokeWidth=8;fillColor=#dae8fc;" vertex="1" parent="1">
          <mxGeometry x="150" y="300" width="160" height="160" as="geometry" />
        </mxCell>
        <mxCell id="ZHMwNc2xsVouACLdSVGA-318" value="" style="whiteSpace=wrap;html=1;aspect=fixed;strokeColor=#6c8ebf;strokeWidth=8;fillColor=#dae8fc;" vertex="1" parent="1">
          <mxGeometry x="170" y="320" width="160" height="160" as="geometry" />
        </mxCell>
        <mxCell id="ZHMwNc2xsVouACLdSVGA-333" value="" style="whiteSpace=wrap;html=1;aspect=fixed;strokeColor=#6c8ebf;strokeWidth=8;fillColor=#dae8fc;" vertex="1" parent="1">
          <mxGeometry x="190" y="340" width="160" height="160" as="geometry" />
        </mxCell>
        <mxCell id="ZHMwNc2xsVouACLdSVGA-335" value="" style="whiteSpace=wrap;html=1;aspect=fixed;strokeColor=#6c8ebf;strokeWidth=8;fillColor=#dae8fc;" vertex="1" parent="1">
          <mxGeometry x="210" y="360" width="160" height="160" as="geometry" />
        </mxCell>
        <mxCell id="ZHMwNc2xsVouACLdSVGA-337" value="" style="whiteSpace=wrap;html=1;aspect=fixed;strokeColor=#6c8ebf;strokeWidth=8;fillColor=#dae8fc;" vertex="1" parent="1">
          <mxGeometry x="230" y="380" width="160" height="160" as="geometry" />
        </mxCell>
        <mxCell id="ZHMwNc2xsVouACLdSVGA-339" value="" style="whiteSpace=wrap;html=1;aspect=fixed;strokeColor=#6c8ebf;strokeWidth=8;fillColor=#dae8fc;" vertex="1" parent="1">
          <mxGeometry x="250" y="400" width="160" height="160" as="geometry" />
        </mxCell>
        <mxCell id="ZHMwNc2xsVouACLdSVGA-341" value="" style="whiteSpace=wrap;html=1;aspect=fixed;strokeColor=#6c8ebf;strokeWidth=8;fillColor=#dae8fc;" vertex="1" parent="1">
          <mxGeometry x="270" y="420" width="160" height="160" as="geometry" />
        </mxCell>
        <mxCell id="ZHMwNc2xsVouACLdSVGA-343" value="" style="whiteSpace=wrap;html=1;aspect=fixed;strokeColor=#6c8ebf;strokeWidth=8;fillColor=#dae8fc;" vertex="1" parent="1">
          <mxGeometry x="290" y="440" width="160" height="160" as="geometry" />
        </mxCell>
        <mxCell id="ZHMwNc2xsVouACLdSVGA-345" value="" style="whiteSpace=wrap;html=1;aspect=fixed;strokeColor=#6c8ebf;strokeWidth=8;fillColor=#dae8fc;" vertex="1" parent="1">
          <mxGeometry x="310" y="460" width="160" height="160" as="geometry" />
        </mxCell>
        <mxCell id="ZHMwNc2xsVouACLdSVGA-347" value="" style="whiteSpace=wrap;html=1;aspect=fixed;strokeColor=#6c8ebf;strokeWidth=8;fillColor=#dae8fc;" vertex="1" parent="1">
          <mxGeometry x="330" y="480" width="160" height="160" as="geometry" />
        </mxCell>
        <mxCell id="ZHMwNc2xsVouACLdSVGA-349" value="" style="whiteSpace=wrap;html=1;aspect=fixed;strokeColor=#6c8ebf;strokeWidth=8;fillColor=#dae8fc;" vertex="1" parent="1">
          <mxGeometry x="350" y="500" width="160" height="160" as="geometry" />
        </mxCell>
        <mxCell id="ZHMwNc2xsVouACLdSVGA-351" value="" style="whiteSpace=wrap;html=1;aspect=fixed;strokeColor=#6c8ebf;strokeWidth=8;fillColor=#dae8fc;" vertex="1" parent="1">
          <mxGeometry x="370" y="520" width="160" height="160" as="geometry" />
        </mxCell>
        <mxCell id="ZHMwNc2xsVouACLdSVGA-353" value="" style="whiteSpace=wrap;html=1;aspect=fixed;strokeColor=#6c8ebf;strokeWidth=8;fillColor=#dae8fc;" vertex="1" parent="1">
          <mxGeometry x="390" y="540" width="160" height="160" as="geometry" />
        </mxCell>
        <mxCell id="ZHMwNc2xsVouACLdSVGA-355" value="" style="whiteSpace=wrap;html=1;aspect=fixed;strokeColor=#6c8ebf;strokeWidth=8;fillColor=#dae8fc;" vertex="1" parent="1">
          <mxGeometry x="410" y="560" width="160" height="160" as="geometry" />
        </mxCell>
        <mxCell id="ZHMwNc2xsVouACLdSVGA-359" value="" style="whiteSpace=wrap;html=1;aspect=fixed;strokeColor=#62874D;strokeWidth=8;fillColor=#d5e8d4;" vertex="1" parent="1">
          <mxGeometry x="330" y="80" width="120" height="120" as="geometry" />
        </mxCell>
        <mxCell id="ZHMwNc2xsVouACLdSVGA-433" value="" style="whiteSpace=wrap;html=1;aspect=fixed;strokeColor=#BA9E4B;strokeWidth=8;fillColor=#fff2cc;" vertex="1" parent="1">
          <mxGeometry x="670" y="80" width="90" height="90" as="geometry" />
        </mxCell>
        <mxCell id="ZHMwNc2xsVouACLdSVGA-493" value="" style="whiteSpace=wrap;html=1;aspect=fixed;strokeColor=#6c8ebf;strokeWidth=8;fillColor=#dae8fc;" vertex="1" parent="1">
          <mxGeometry x="430" y="580" width="160" height="160" as="geometry" />
        </mxCell>
        <mxCell id="ZHMwNc2xsVouACLdSVGA-495" value="" style="whiteSpace=wrap;html=1;aspect=fixed;strokeColor=#6c8ebf;strokeWidth=8;fillColor=#dae8fc;" vertex="1" parent="1">
          <mxGeometry x="450" y="600" width="160" height="160" as="geometry" />
        </mxCell>
        <mxCell id="ZHMwNc2xsVouACLdSVGA-497" value="" style="whiteSpace=wrap;html=1;aspect=fixed;strokeColor=#6c8ebf;strokeWidth=8;fillColor=#dae8fc;" vertex="1" parent="1">
          <mxGeometry x="470" y="620" width="160" height="160" as="geometry" />
        </mxCell>
        <mxCell id="ZHMwNc2xsVouACLdSVGA-499" value="" style="whiteSpace=wrap;html=1;aspect=fixed;strokeColor=#6c8ebf;strokeWidth=8;fillColor=#dae8fc;" vertex="1" parent="1">
          <mxGeometry x="490" y="640" width="160" height="160" as="geometry" />
        </mxCell>
        <mxCell id="ZHMwNc2xsVouACLdSVGA-501" value="" style="whiteSpace=wrap;html=1;aspect=fixed;strokeColor=#6c8ebf;strokeWidth=8;fillColor=#dae8fc;" vertex="1" parent="1">
          <mxGeometry x="510" y="660" width="160" height="160" as="geometry" />
        </mxCell>
        <mxCell id="ZHMwNc2xsVouACLdSVGA-503" value="" style="whiteSpace=wrap;html=1;aspect=fixed;strokeColor=#6c8ebf;strokeWidth=8;fillColor=#dae8fc;" vertex="1" parent="1">
          <mxGeometry x="530" y="680" width="160" height="160" as="geometry" />
        </mxCell>
        <mxCell id="ZHMwNc2xsVouACLdSVGA-505" value="" style="whiteSpace=wrap;html=1;aspect=fixed;strokeColor=#6c8ebf;strokeWidth=8;fillColor=#dae8fc;" vertex="1" parent="1">
          <mxGeometry x="550" y="705" width="160" height="160" as="geometry" />
        </mxCell>
        <mxCell id="ZHMwNc2xsVouACLdSVGA-530" value="" style="whiteSpace=wrap;html=1;aspect=fixed;strokeColor=#E07100;strokeWidth=8;fillColor=#FFCE9F;" vertex="1" parent="1">
          <mxGeometry x="950" y="80" width="60" height="60" as="geometry" />
        </mxCell>
        <mxCell id="ZHMwNc2xsVouACLdSVGA-676" value="" style="ellipse;whiteSpace=wrap;html=1;aspect=fixed;strokeColor=#666666;strokeWidth=8;fillColor=#B3B3B3;fontColor=#333333;" vertex="1" parent="1">
          <mxGeometry x="1201" y="80" width="80" height="80" as="geometry" />
        </mxCell>
        <mxCell id="ZHMwNc2xsVouACLdSVGA-753" value="" style="ellipse;whiteSpace=wrap;html=1;aspect=fixed;strokeColor=#666666;strokeWidth=8;fillColor=#B3B3B3;fontColor=#333333;" vertex="1" parent="1">
          <mxGeometry x="1880" y="760" width="80" height="80" as="geometry" />
        </mxCell>
        <mxCell id="ZHMwNc2xsVouACLdSVGA-754" value="" style="ellipse;whiteSpace=wrap;html=1;aspect=fixed;strokeColor=#666666;strokeWidth=8;fillColor=#B3B3B3;fontColor=#333333;" vertex="1" parent="1">
          <mxGeometry x="1361" y="240" width="80" height="80" as="geometry" />
        </mxCell>
        <mxCell id="ZHMwNc2xsVouACLdSVGA-755" value="" style="ellipse;whiteSpace=wrap;html=1;aspect=fixed;strokeColor=#666666;strokeWidth=8;fillColor=#B3B3B3;fontColor=#333333;" vertex="1" parent="1">
          <mxGeometry x="1441" y="320" width="80" height="80" as="geometry" />
        </mxCell>
        <mxCell id="ZHMwNc2xsVouACLdSVGA-756" value="" style="ellipse;whiteSpace=wrap;html=1;aspect=fixed;strokeColor=#666666;strokeWidth=8;fillColor=#B3B3B3;fontColor=#333333;" vertex="1" parent="1">
          <mxGeometry x="1280" y="160" width="80" height="80" as="geometry" />
        </mxCell>
        <mxCell id="ZHMwNc2xsVouACLdSVGA-757" value="" style="ellipse;whiteSpace=wrap;html=1;aspect=fixed;strokeColor=#666666;strokeWidth=8;fillColor=#B3B3B3;fontColor=#333333;" vertex="1" parent="1">
          <mxGeometry x="1800" y="680" width="80" height="80" as="geometry" />
        </mxCell>
        <mxCell id="ZHMwNc2xsVouACLdSVGA-758" value="" style="ellipse;whiteSpace=wrap;html=1;aspect=fixed;strokeColor=#666666;strokeWidth=8;fillColor=#B3B3B3;fontColor=#333333;" vertex="1" parent="1">
          <mxGeometry x="1720" y="600" width="80" height="80" as="geometry" />
        </mxCell>
        <mxCell id="ZHMwNc2xsVouACLdSVGA-759" value="" style="ellipse;whiteSpace=wrap;html=1;aspect=fixed;strokeColor=#666666;strokeWidth=8;fillColor=#B3B3B3;fontColor=#333333;" vertex="1" parent="1">
          <mxGeometry x="1640" y="520" width="80" height="80" as="geometry" />
        </mxCell>
        <mxCell id="ZHMwNc2xsVouACLdSVGA-767" value="" style="whiteSpace=wrap;html=1;aspect=fixed;strokeColor=#62874D;strokeWidth=8;fillColor=#d5e8d4;" vertex="1" parent="1">
          <mxGeometry x="350" y="100" width="120" height="120" as="geometry" />
        </mxCell>
        <mxCell id="ZHMwNc2xsVouACLdSVGA-769" value="" style="whiteSpace=wrap;html=1;aspect=fixed;strokeColor=#62874D;strokeWidth=8;fillColor=#d5e8d4;" vertex="1" parent="1">
          <mxGeometry x="370" y="120" width="120" height="120" as="geometry" />
        </mxCell>
        <mxCell id="ZHMwNc2xsVouACLdSVGA-771" value="" style="whiteSpace=wrap;html=1;aspect=fixed;strokeColor=#62874D;strokeWidth=8;fillColor=#d5e8d4;" vertex="1" parent="1">
          <mxGeometry x="390" y="140" width="120" height="120" as="geometry" />
        </mxCell>
        <mxCell id="ZHMwNc2xsVouACLdSVGA-773" value="" style="whiteSpace=wrap;html=1;aspect=fixed;strokeColor=#62874D;strokeWidth=8;fillColor=#d5e8d4;" vertex="1" parent="1">
          <mxGeometry x="410" y="160" width="120" height="120" as="geometry" />
        </mxCell>
        <mxCell id="ZHMwNc2xsVouACLdSVGA-775" value="" style="whiteSpace=wrap;html=1;aspect=fixed;strokeColor=#62874D;strokeWidth=8;fillColor=#d5e8d4;" vertex="1" parent="1">
          <mxGeometry x="430" y="180" width="120" height="120" as="geometry" />
        </mxCell>
        <mxCell id="ZHMwNc2xsVouACLdSVGA-777" value="" style="whiteSpace=wrap;html=1;aspect=fixed;strokeColor=#62874D;strokeWidth=8;fillColor=#d5e8d4;" vertex="1" parent="1">
          <mxGeometry x="450" y="200" width="120" height="120" as="geometry" />
        </mxCell>
        <mxCell id="ZHMwNc2xsVouACLdSVGA-779" value="" style="whiteSpace=wrap;html=1;aspect=fixed;strokeColor=#62874D;strokeWidth=8;fillColor=#d5e8d4;" vertex="1" parent="1">
          <mxGeometry x="470" y="220" width="120" height="120" as="geometry" />
        </mxCell>
        <mxCell id="ZHMwNc2xsVouACLdSVGA-781" value="" style="whiteSpace=wrap;html=1;aspect=fixed;strokeColor=#62874D;strokeWidth=8;fillColor=#d5e8d4;" vertex="1" parent="1">
          <mxGeometry x="490" y="240" width="120" height="120" as="geometry" />
        </mxCell>
        <mxCell id="ZHMwNc2xsVouACLdSVGA-783" value="" style="whiteSpace=wrap;html=1;aspect=fixed;strokeColor=#62874D;strokeWidth=8;fillColor=#d5e8d4;" vertex="1" parent="1">
          <mxGeometry x="510" y="260" width="120" height="120" as="geometry" />
        </mxCell>
        <mxCell id="ZHMwNc2xsVouACLdSVGA-785" value="" style="whiteSpace=wrap;html=1;aspect=fixed;strokeColor=#62874D;strokeWidth=8;fillColor=#d5e8d4;" vertex="1" parent="1">
          <mxGeometry x="530" y="280" width="120" height="120" as="geometry" />
        </mxCell>
        <mxCell id="ZHMwNc2xsVouACLdSVGA-787" value="" style="whiteSpace=wrap;html=1;aspect=fixed;strokeColor=#62874D;strokeWidth=8;fillColor=#d5e8d4;" vertex="1" parent="1">
          <mxGeometry x="550" y="300" width="120" height="120" as="geometry" />
        </mxCell>
        <mxCell id="ZHMwNc2xsVouACLdSVGA-789" value="" style="whiteSpace=wrap;html=1;aspect=fixed;strokeColor=#62874D;strokeWidth=8;fillColor=#d5e8d4;" vertex="1" parent="1">
          <mxGeometry x="570" y="320" width="120" height="120" as="geometry" />
        </mxCell>
        <mxCell id="ZHMwNc2xsVouACLdSVGA-791" value="" style="whiteSpace=wrap;html=1;aspect=fixed;strokeColor=#62874D;strokeWidth=8;fillColor=#d5e8d4;" vertex="1" parent="1">
          <mxGeometry x="590" y="340" width="120" height="120" as="geometry" />
        </mxCell>
        <mxCell id="ZHMwNc2xsVouACLdSVGA-793" value="" style="whiteSpace=wrap;html=1;aspect=fixed;strokeColor=#62874D;strokeWidth=8;fillColor=#d5e8d4;" vertex="1" parent="1">
          <mxGeometry x="610" y="360" width="120" height="120" as="geometry" />
        </mxCell>
        <mxCell id="ZHMwNc2xsVouACLdSVGA-795" value="" style="whiteSpace=wrap;html=1;aspect=fixed;strokeColor=#62874D;strokeWidth=8;fillColor=#d5e8d4;" vertex="1" parent="1">
          <mxGeometry x="630" y="380" width="120" height="120" as="geometry" />
        </mxCell>
        <mxCell id="ZHMwNc2xsVouACLdSVGA-797" value="" style="whiteSpace=wrap;html=1;aspect=fixed;strokeColor=#62874D;strokeWidth=8;fillColor=#d5e8d4;" vertex="1" parent="1">
          <mxGeometry x="650" y="400" width="120" height="120" as="geometry" />
        </mxCell>
        <mxCell id="ZHMwNc2xsVouACLdSVGA-799" value="" style="whiteSpace=wrap;html=1;aspect=fixed;strokeColor=#62874D;strokeWidth=8;fillColor=#d5e8d4;" vertex="1" parent="1">
          <mxGeometry x="670" y="420" width="120" height="120" as="geometry" />
        </mxCell>
        <mxCell id="ZHMwNc2xsVouACLdSVGA-801" value="" style="whiteSpace=wrap;html=1;aspect=fixed;strokeColor=#62874D;strokeWidth=8;fillColor=#d5e8d4;" vertex="1" parent="1">
          <mxGeometry x="690" y="440" width="120" height="120" as="geometry" />
        </mxCell>
        <mxCell id="ZHMwNc2xsVouACLdSVGA-803" value="" style="whiteSpace=wrap;html=1;aspect=fixed;strokeColor=#62874D;strokeWidth=8;fillColor=#d5e8d4;" vertex="1" parent="1">
          <mxGeometry x="710" y="460" width="120" height="120" as="geometry" />
        </mxCell>
        <mxCell id="ZHMwNc2xsVouACLdSVGA-805" value="" style="whiteSpace=wrap;html=1;aspect=fixed;strokeColor=#62874D;strokeWidth=8;fillColor=#d5e8d4;" vertex="1" parent="1">
          <mxGeometry x="730" y="480" width="120" height="120" as="geometry" />
        </mxCell>
        <mxCell id="ZHMwNc2xsVouACLdSVGA-807" value="" style="whiteSpace=wrap;html=1;aspect=fixed;strokeColor=#62874D;strokeWidth=8;fillColor=#d5e8d4;" vertex="1" parent="1">
          <mxGeometry x="750" y="500" width="120" height="120" as="geometry" />
        </mxCell>
        <mxCell id="ZHMwNc2xsVouACLdSVGA-809" value="" style="whiteSpace=wrap;html=1;aspect=fixed;strokeColor=#62874D;strokeWidth=8;fillColor=#d5e8d4;" vertex="1" parent="1">
          <mxGeometry x="770" y="520" width="120" height="120" as="geometry" />
        </mxCell>
        <mxCell id="ZHMwNc2xsVouACLdSVGA-811" value="" style="whiteSpace=wrap;html=1;aspect=fixed;strokeColor=#62874D;strokeWidth=8;fillColor=#d5e8d4;" vertex="1" parent="1">
          <mxGeometry x="790" y="540" width="120" height="120" as="geometry" />
        </mxCell>
        <mxCell id="ZHMwNc2xsVouACLdSVGA-813" value="" style="whiteSpace=wrap;html=1;aspect=fixed;strokeColor=#62874D;strokeWidth=8;fillColor=#d5e8d4;" vertex="1" parent="1">
          <mxGeometry x="810" y="560" width="120" height="120" as="geometry" />
        </mxCell>
        <mxCell id="ZHMwNc2xsVouACLdSVGA-815" value="" style="whiteSpace=wrap;html=1;aspect=fixed;strokeColor=#62874D;strokeWidth=8;fillColor=#d5e8d4;" vertex="1" parent="1">
          <mxGeometry x="830" y="580" width="120" height="120" as="geometry" />
        </mxCell>
        <mxCell id="ZHMwNc2xsVouACLdSVGA-817" value="" style="whiteSpace=wrap;html=1;aspect=fixed;strokeColor=#62874D;strokeWidth=8;fillColor=#d5e8d4;" vertex="1" parent="1">
          <mxGeometry x="850" y="600" width="120" height="120" as="geometry" />
        </mxCell>
        <mxCell id="ZHMwNc2xsVouACLdSVGA-819" value="" style="whiteSpace=wrap;html=1;aspect=fixed;strokeColor=#62874D;strokeWidth=8;fillColor=#d5e8d4;" vertex="1" parent="1">
          <mxGeometry x="870" y="620" width="120" height="120" as="geometry" />
        </mxCell>
        <mxCell id="ZHMwNc2xsVouACLdSVGA-821" value="" style="whiteSpace=wrap;html=1;aspect=fixed;strokeColor=#62874D;strokeWidth=8;fillColor=#d5e8d4;" vertex="1" parent="1">
          <mxGeometry x="890" y="640" width="120" height="120" as="geometry" />
        </mxCell>
        <mxCell id="ZHMwNc2xsVouACLdSVGA-823" value="" style="whiteSpace=wrap;html=1;aspect=fixed;strokeColor=#62874D;strokeWidth=8;fillColor=#d5e8d4;" vertex="1" parent="1">
          <mxGeometry x="910" y="660" width="120" height="120" as="geometry" />
        </mxCell>
        <mxCell id="ZHMwNc2xsVouACLdSVGA-825" value="" style="whiteSpace=wrap;html=1;aspect=fixed;strokeColor=#62874D;strokeWidth=8;fillColor=#d5e8d4;" vertex="1" parent="1">
          <mxGeometry x="930" y="680" width="120" height="120" as="geometry" />
        </mxCell>
        <mxCell id="ZHMwNc2xsVouACLdSVGA-827" value="" style="whiteSpace=wrap;html=1;aspect=fixed;strokeColor=#62874D;strokeWidth=8;fillColor=#d5e8d4;" vertex="1" parent="1">
          <mxGeometry x="950" y="700" width="120" height="120" as="geometry" />
        </mxCell>
        <mxCell id="ZHMwNc2xsVouACLdSVGA-829" value="" style="whiteSpace=wrap;html=1;aspect=fixed;strokeColor=#62874D;strokeWidth=8;fillColor=#d5e8d4;" vertex="1" parent="1">
          <mxGeometry x="970" y="720" width="120" height="120" as="geometry" />
        </mxCell>
        <mxCell id="ZHMwNc2xsVouACLdSVGA-831" value="" style="whiteSpace=wrap;html=1;aspect=fixed;strokeColor=#62874D;strokeWidth=8;fillColor=#d5e8d4;" vertex="1" parent="1">
          <mxGeometry x="990" y="740" width="120" height="120" as="geometry" />
        </mxCell>
        <mxCell id="ZHMwNc2xsVouACLdSVGA-836" value="" style="whiteSpace=wrap;html=1;aspect=fixed;strokeColor=#BA9E4B;strokeWidth=8;fillColor=#fff2cc;" vertex="1" parent="1">
          <mxGeometry x="690" y="100" width="90" height="90" as="geometry" />
        </mxCell>
        <mxCell id="ZHMwNc2xsVouACLdSVGA-838" value="" style="whiteSpace=wrap;html=1;aspect=fixed;strokeColor=#BA9E4B;strokeWidth=8;fillColor=#fff2cc;" vertex="1" parent="1">
          <mxGeometry x="710" y="120" width="90" height="90" as="geometry" />
        </mxCell>
        <mxCell id="ZHMwNc2xsVouACLdSVGA-840" value="" style="whiteSpace=wrap;html=1;aspect=fixed;strokeColor=#BA9E4B;strokeWidth=8;fillColor=#fff2cc;" vertex="1" parent="1">
          <mxGeometry x="730" y="140" width="90" height="90" as="geometry" />
        </mxCell>
        <mxCell id="ZHMwNc2xsVouACLdSVGA-842" value="" style="whiteSpace=wrap;html=1;aspect=fixed;strokeColor=#BA9E4B;strokeWidth=8;fillColor=#fff2cc;" vertex="1" parent="1">
          <mxGeometry x="750" y="160" width="90" height="90" as="geometry" />
        </mxCell>
        <mxCell id="ZHMwNc2xsVouACLdSVGA-844" value="" style="whiteSpace=wrap;html=1;aspect=fixed;strokeColor=#BA9E4B;strokeWidth=8;fillColor=#fff2cc;" vertex="1" parent="1">
          <mxGeometry x="770" y="180" width="90" height="90" as="geometry" />
        </mxCell>
        <mxCell id="ZHMwNc2xsVouACLdSVGA-846" value="" style="whiteSpace=wrap;html=1;aspect=fixed;strokeColor=#BA9E4B;strokeWidth=8;fillColor=#fff2cc;" vertex="1" parent="1">
          <mxGeometry x="790" y="200" width="90" height="90" as="geometry" />
        </mxCell>
        <mxCell id="ZHMwNc2xsVouACLdSVGA-848" value="" style="whiteSpace=wrap;html=1;aspect=fixed;strokeColor=#BA9E4B;strokeWidth=8;fillColor=#fff2cc;" vertex="1" parent="1">
          <mxGeometry x="810" y="220" width="90" height="90" as="geometry" />
        </mxCell>
        <mxCell id="ZHMwNc2xsVouACLdSVGA-850" value="" style="whiteSpace=wrap;html=1;aspect=fixed;strokeColor=#BA9E4B;strokeWidth=8;fillColor=#fff2cc;" vertex="1" parent="1">
          <mxGeometry x="830" y="240" width="90" height="90" as="geometry" />
        </mxCell>
        <mxCell id="ZHMwNc2xsVouACLdSVGA-852" value="" style="whiteSpace=wrap;html=1;aspect=fixed;strokeColor=#BA9E4B;strokeWidth=8;fillColor=#fff2cc;" vertex="1" parent="1">
          <mxGeometry x="850" y="260" width="90" height="90" as="geometry" />
        </mxCell>
        <mxCell id="ZHMwNc2xsVouACLdSVGA-854" value="" style="whiteSpace=wrap;html=1;aspect=fixed;strokeColor=#BA9E4B;strokeWidth=8;fillColor=#fff2cc;" vertex="1" parent="1">
          <mxGeometry x="870" y="280" width="90" height="90" as="geometry" />
        </mxCell>
        <mxCell id="ZHMwNc2xsVouACLdSVGA-856" value="" style="whiteSpace=wrap;html=1;aspect=fixed;strokeColor=#BA9E4B;strokeWidth=8;fillColor=#fff2cc;" vertex="1" parent="1">
          <mxGeometry x="890" y="300" width="90" height="90" as="geometry" />
        </mxCell>
        <mxCell id="ZHMwNc2xsVouACLdSVGA-858" value="" style="whiteSpace=wrap;html=1;aspect=fixed;strokeColor=#BA9E4B;strokeWidth=8;fillColor=#fff2cc;" vertex="1" parent="1">
          <mxGeometry x="910" y="320" width="90" height="90" as="geometry" />
        </mxCell>
        <mxCell id="ZHMwNc2xsVouACLdSVGA-860" value="" style="whiteSpace=wrap;html=1;aspect=fixed;strokeColor=#BA9E4B;strokeWidth=8;fillColor=#fff2cc;" vertex="1" parent="1">
          <mxGeometry x="930" y="340" width="90" height="90" as="geometry" />
        </mxCell>
        <mxCell id="ZHMwNc2xsVouACLdSVGA-862" value="" style="whiteSpace=wrap;html=1;aspect=fixed;strokeColor=#BA9E4B;strokeWidth=8;fillColor=#fff2cc;" vertex="1" parent="1">
          <mxGeometry x="950" y="360" width="90" height="90" as="geometry" />
        </mxCell>
        <mxCell id="ZHMwNc2xsVouACLdSVGA-864" value="" style="whiteSpace=wrap;html=1;aspect=fixed;strokeColor=#BA9E4B;strokeWidth=8;fillColor=#fff2cc;" vertex="1" parent="1">
          <mxGeometry x="970" y="380" width="90" height="90" as="geometry" />
        </mxCell>
        <mxCell id="ZHMwNc2xsVouACLdSVGA-866" value="" style="whiteSpace=wrap;html=1;aspect=fixed;strokeColor=#BA9E4B;strokeWidth=8;fillColor=#fff2cc;" vertex="1" parent="1">
          <mxGeometry x="990" y="400" width="90" height="90" as="geometry" />
        </mxCell>
        <mxCell id="ZHMwNc2xsVouACLdSVGA-868" value="" style="whiteSpace=wrap;html=1;aspect=fixed;strokeColor=#BA9E4B;strokeWidth=8;fillColor=#fff2cc;" vertex="1" parent="1">
          <mxGeometry x="1010" y="420" width="90" height="90" as="geometry" />
        </mxCell>
        <mxCell id="ZHMwNc2xsVouACLdSVGA-870" value="" style="whiteSpace=wrap;html=1;aspect=fixed;strokeColor=#BA9E4B;strokeWidth=8;fillColor=#fff2cc;" vertex="1" parent="1">
          <mxGeometry x="1030" y="440" width="90" height="90" as="geometry" />
        </mxCell>
        <mxCell id="ZHMwNc2xsVouACLdSVGA-872" value="" style="whiteSpace=wrap;html=1;aspect=fixed;strokeColor=#BA9E4B;strokeWidth=8;fillColor=#fff2cc;" vertex="1" parent="1">
          <mxGeometry x="1050" y="460" width="90" height="90" as="geometry" />
        </mxCell>
        <mxCell id="ZHMwNc2xsVouACLdSVGA-874" value="" style="whiteSpace=wrap;html=1;aspect=fixed;strokeColor=#BA9E4B;strokeWidth=8;fillColor=#fff2cc;" vertex="1" parent="1">
          <mxGeometry x="1070" y="480" width="90" height="90" as="geometry" />
        </mxCell>
        <mxCell id="ZHMwNc2xsVouACLdSVGA-876" value="" style="whiteSpace=wrap;html=1;aspect=fixed;strokeColor=#BA9E4B;strokeWidth=8;fillColor=#fff2cc;" vertex="1" parent="1">
          <mxGeometry x="1090" y="500" width="90" height="90" as="geometry" />
        </mxCell>
        <mxCell id="ZHMwNc2xsVouACLdSVGA-878" value="" style="whiteSpace=wrap;html=1;aspect=fixed;strokeColor=#BA9E4B;strokeWidth=8;fillColor=#fff2cc;" vertex="1" parent="1">
          <mxGeometry x="1110" y="520" width="90" height="90" as="geometry" />
        </mxCell>
        <mxCell id="ZHMwNc2xsVouACLdSVGA-880" value="" style="whiteSpace=wrap;html=1;aspect=fixed;strokeColor=#BA9E4B;strokeWidth=8;fillColor=#fff2cc;" vertex="1" parent="1">
          <mxGeometry x="1130" y="540" width="90" height="90" as="geometry" />
        </mxCell>
        <mxCell id="ZHMwNc2xsVouACLdSVGA-882" value="" style="whiteSpace=wrap;html=1;aspect=fixed;strokeColor=#BA9E4B;strokeWidth=8;fillColor=#fff2cc;" vertex="1" parent="1">
          <mxGeometry x="1150" y="560" width="90" height="90" as="geometry" />
        </mxCell>
        <mxCell id="ZHMwNc2xsVouACLdSVGA-884" value="" style="whiteSpace=wrap;html=1;aspect=fixed;strokeColor=#BA9E4B;strokeWidth=8;fillColor=#fff2cc;" vertex="1" parent="1">
          <mxGeometry x="1170" y="580" width="90" height="90" as="geometry" />
        </mxCell>
        <mxCell id="ZHMwNc2xsVouACLdSVGA-886" value="" style="whiteSpace=wrap;html=1;aspect=fixed;strokeColor=#BA9E4B;strokeWidth=8;fillColor=#fff2cc;" vertex="1" parent="1">
          <mxGeometry x="1190" y="600" width="90" height="90" as="geometry" />
        </mxCell>
        <mxCell id="ZHMwNc2xsVouACLdSVGA-888" value="" style="whiteSpace=wrap;html=1;aspect=fixed;strokeColor=#BA9E4B;strokeWidth=8;fillColor=#fff2cc;" vertex="1" parent="1">
          <mxGeometry x="1210" y="620" width="90" height="90" as="geometry" />
        </mxCell>
        <mxCell id="ZHMwNc2xsVouACLdSVGA-890" value="" style="whiteSpace=wrap;html=1;aspect=fixed;strokeColor=#BA9E4B;strokeWidth=8;fillColor=#fff2cc;" vertex="1" parent="1">
          <mxGeometry x="1230" y="640" width="90" height="90" as="geometry" />
        </mxCell>
        <mxCell id="ZHMwNc2xsVouACLdSVGA-892" value="" style="whiteSpace=wrap;html=1;aspect=fixed;strokeColor=#BA9E4B;strokeWidth=8;fillColor=#fff2cc;" vertex="1" parent="1">
          <mxGeometry x="1250" y="660" width="90" height="90" as="geometry" />
        </mxCell>
        <mxCell id="ZHMwNc2xsVouACLdSVGA-894" value="" style="whiteSpace=wrap;html=1;aspect=fixed;strokeColor=#BA9E4B;strokeWidth=8;fillColor=#fff2cc;" vertex="1" parent="1">
          <mxGeometry x="1270" y="680" width="90" height="90" as="geometry" />
        </mxCell>
        <mxCell id="ZHMwNc2xsVouACLdSVGA-896" value="" style="whiteSpace=wrap;html=1;aspect=fixed;strokeColor=#BA9E4B;strokeWidth=8;fillColor=#fff2cc;" vertex="1" parent="1">
          <mxGeometry x="1290" y="700" width="90" height="90" as="geometry" />
        </mxCell>
        <mxCell id="ZHMwNc2xsVouACLdSVGA-898" value="" style="whiteSpace=wrap;html=1;aspect=fixed;strokeColor=#BA9E4B;strokeWidth=8;fillColor=#fff2cc;" vertex="1" parent="1">
          <mxGeometry x="1310" y="720" width="90" height="90" as="geometry" />
        </mxCell>
        <mxCell id="ZHMwNc2xsVouACLdSVGA-900" value="" style="whiteSpace=wrap;html=1;aspect=fixed;strokeColor=#BA9E4B;strokeWidth=8;fillColor=#fff2cc;" vertex="1" parent="1">
          <mxGeometry x="1330" y="740" width="90" height="90" as="geometry" />
        </mxCell>
        <mxCell id="ZHMwNc2xsVouACLdSVGA-902" value="" style="whiteSpace=wrap;html=1;aspect=fixed;strokeColor=#BA9E4B;strokeWidth=8;fillColor=#fff2cc;" vertex="1" parent="1">
          <mxGeometry x="1350" y="760" width="90" height="90" as="geometry" />
        </mxCell>
        <mxCell id="ZHMwNc2xsVouACLdSVGA-907" value="" style="whiteSpace=wrap;html=1;aspect=fixed;strokeColor=#E07100;strokeWidth=8;fillColor=#FFCE9F;" vertex="1" parent="1">
          <mxGeometry x="970" y="100" width="60" height="60" as="geometry" />
        </mxCell>
        <mxCell id="ZHMwNc2xsVouACLdSVGA-909" value="" style="whiteSpace=wrap;html=1;aspect=fixed;strokeColor=#E07100;strokeWidth=8;fillColor=#FFCE9F;" vertex="1" parent="1">
          <mxGeometry x="990" y="120" width="60" height="60" as="geometry" />
        </mxCell>
        <mxCell id="ZHMwNc2xsVouACLdSVGA-911" value="" style="whiteSpace=wrap;html=1;aspect=fixed;strokeColor=#E07100;strokeWidth=8;fillColor=#FFCE9F;" vertex="1" parent="1">
          <mxGeometry x="1010" y="140" width="60" height="60" as="geometry" />
        </mxCell>
        <mxCell id="ZHMwNc2xsVouACLdSVGA-913" value="" style="whiteSpace=wrap;html=1;aspect=fixed;strokeColor=#E07100;strokeWidth=8;fillColor=#FFCE9F;" vertex="1" parent="1">
          <mxGeometry x="1030" y="160" width="60" height="60" as="geometry" />
        </mxCell>
        <mxCell id="ZHMwNc2xsVouACLdSVGA-915" value="" style="whiteSpace=wrap;html=1;aspect=fixed;strokeColor=#E07100;strokeWidth=8;fillColor=#FFCE9F;" vertex="1" parent="1">
          <mxGeometry x="1050" y="180" width="60" height="60" as="geometry" />
        </mxCell>
        <mxCell id="ZHMwNc2xsVouACLdSVGA-917" value="" style="whiteSpace=wrap;html=1;aspect=fixed;strokeColor=#E07100;strokeWidth=8;fillColor=#FFCE9F;" vertex="1" parent="1">
          <mxGeometry x="1070" y="200" width="60" height="60" as="geometry" />
        </mxCell>
        <mxCell id="ZHMwNc2xsVouACLdSVGA-919" value="" style="whiteSpace=wrap;html=1;aspect=fixed;strokeColor=#E07100;strokeWidth=8;fillColor=#FFCE9F;" vertex="1" parent="1">
          <mxGeometry x="1090" y="220" width="60" height="60" as="geometry" />
        </mxCell>
        <mxCell id="ZHMwNc2xsVouACLdSVGA-921" value="" style="whiteSpace=wrap;html=1;aspect=fixed;strokeColor=#E07100;strokeWidth=8;fillColor=#FFCE9F;" vertex="1" parent="1">
          <mxGeometry x="1110" y="240" width="60" height="60" as="geometry" />
        </mxCell>
        <mxCell id="ZHMwNc2xsVouACLdSVGA-923" value="" style="whiteSpace=wrap;html=1;aspect=fixed;strokeColor=#E07100;strokeWidth=8;fillColor=#FFCE9F;" vertex="1" parent="1">
          <mxGeometry x="1130" y="260" width="60" height="60" as="geometry" />
        </mxCell>
        <mxCell id="ZHMwNc2xsVouACLdSVGA-925" value="" style="whiteSpace=wrap;html=1;aspect=fixed;strokeColor=#E07100;strokeWidth=8;fillColor=#FFCE9F;" vertex="1" parent="1">
          <mxGeometry x="1150" y="280" width="60" height="60" as="geometry" />
        </mxCell>
        <mxCell id="ZHMwNc2xsVouACLdSVGA-927" value="" style="whiteSpace=wrap;html=1;aspect=fixed;strokeColor=#E07100;strokeWidth=8;fillColor=#FFCE9F;" vertex="1" parent="1">
          <mxGeometry x="1170" y="300" width="60" height="60" as="geometry" />
        </mxCell>
        <mxCell id="ZHMwNc2xsVouACLdSVGA-929" value="" style="whiteSpace=wrap;html=1;aspect=fixed;strokeColor=#E07100;strokeWidth=8;fillColor=#FFCE9F;" vertex="1" parent="1">
          <mxGeometry x="1190" y="320" width="60" height="60" as="geometry" />
        </mxCell>
        <mxCell id="ZHMwNc2xsVouACLdSVGA-931" value="" style="whiteSpace=wrap;html=1;aspect=fixed;strokeColor=#E07100;strokeWidth=8;fillColor=#FFCE9F;" vertex="1" parent="1">
          <mxGeometry x="1210" y="340" width="60" height="60" as="geometry" />
        </mxCell>
        <mxCell id="ZHMwNc2xsVouACLdSVGA-933" value="" style="whiteSpace=wrap;html=1;aspect=fixed;strokeColor=#E07100;strokeWidth=8;fillColor=#FFCE9F;" vertex="1" parent="1">
          <mxGeometry x="1230" y="360" width="60" height="60" as="geometry" />
        </mxCell>
        <mxCell id="ZHMwNc2xsVouACLdSVGA-935" value="" style="whiteSpace=wrap;html=1;aspect=fixed;strokeColor=#E07100;strokeWidth=8;fillColor=#FFCE9F;" vertex="1" parent="1">
          <mxGeometry x="1250" y="380" width="60" height="60" as="geometry" />
        </mxCell>
        <mxCell id="ZHMwNc2xsVouACLdSVGA-937" value="" style="whiteSpace=wrap;html=1;aspect=fixed;strokeColor=#E07100;strokeWidth=8;fillColor=#FFCE9F;" vertex="1" parent="1">
          <mxGeometry x="1270" y="400" width="60" height="60" as="geometry" />
        </mxCell>
        <mxCell id="ZHMwNc2xsVouACLdSVGA-939" value="" style="whiteSpace=wrap;html=1;aspect=fixed;strokeColor=#E07100;strokeWidth=8;fillColor=#FFCE9F;" vertex="1" parent="1">
          <mxGeometry x="1290" y="420" width="60" height="60" as="geometry" />
        </mxCell>
        <mxCell id="ZHMwNc2xsVouACLdSVGA-941" value="" style="whiteSpace=wrap;html=1;aspect=fixed;strokeColor=#E07100;strokeWidth=8;fillColor=#FFCE9F;" vertex="1" parent="1">
          <mxGeometry x="1310" y="440" width="60" height="60" as="geometry" />
        </mxCell>
        <mxCell id="ZHMwNc2xsVouACLdSVGA-943" value="" style="whiteSpace=wrap;html=1;aspect=fixed;strokeColor=#E07100;strokeWidth=8;fillColor=#FFCE9F;" vertex="1" parent="1">
          <mxGeometry x="1330" y="460" width="60" height="60" as="geometry" />
        </mxCell>
        <mxCell id="ZHMwNc2xsVouACLdSVGA-945" value="" style="whiteSpace=wrap;html=1;aspect=fixed;strokeColor=#E07100;strokeWidth=8;fillColor=#FFCE9F;" vertex="1" parent="1">
          <mxGeometry x="1350" y="480" width="60" height="60" as="geometry" />
        </mxCell>
        <mxCell id="ZHMwNc2xsVouACLdSVGA-947" value="" style="whiteSpace=wrap;html=1;aspect=fixed;strokeColor=#E07100;strokeWidth=8;fillColor=#FFCE9F;" vertex="1" parent="1">
          <mxGeometry x="1370" y="500" width="60" height="60" as="geometry" />
        </mxCell>
        <mxCell id="ZHMwNc2xsVouACLdSVGA-949" value="" style="whiteSpace=wrap;html=1;aspect=fixed;strokeColor=#E07100;strokeWidth=8;fillColor=#FFCE9F;" vertex="1" parent="1">
          <mxGeometry x="1390" y="520" width="60" height="60" as="geometry" />
        </mxCell>
        <mxCell id="ZHMwNc2xsVouACLdSVGA-951" value="" style="whiteSpace=wrap;html=1;aspect=fixed;strokeColor=#E07100;strokeWidth=8;fillColor=#FFCE9F;" vertex="1" parent="1">
          <mxGeometry x="1410" y="540" width="60" height="60" as="geometry" />
        </mxCell>
        <mxCell id="ZHMwNc2xsVouACLdSVGA-953" value="" style="whiteSpace=wrap;html=1;aspect=fixed;strokeColor=#E07100;strokeWidth=8;fillColor=#FFCE9F;" vertex="1" parent="1">
          <mxGeometry x="1430" y="560" width="60" height="60" as="geometry" />
        </mxCell>
        <mxCell id="ZHMwNc2xsVouACLdSVGA-955" value="" style="whiteSpace=wrap;html=1;aspect=fixed;strokeColor=#E07100;strokeWidth=8;fillColor=#FFCE9F;" vertex="1" parent="1">
          <mxGeometry x="1450" y="580" width="60" height="60" as="geometry" />
        </mxCell>
        <mxCell id="ZHMwNc2xsVouACLdSVGA-957" value="" style="whiteSpace=wrap;html=1;aspect=fixed;strokeColor=#E07100;strokeWidth=8;fillColor=#FFCE9F;" vertex="1" parent="1">
          <mxGeometry x="1470" y="600" width="60" height="60" as="geometry" />
        </mxCell>
        <mxCell id="ZHMwNc2xsVouACLdSVGA-959" value="" style="whiteSpace=wrap;html=1;aspect=fixed;strokeColor=#E07100;strokeWidth=8;fillColor=#FFCE9F;" vertex="1" parent="1">
          <mxGeometry x="1490" y="620" width="60" height="60" as="geometry" />
        </mxCell>
        <mxCell id="ZHMwNc2xsVouACLdSVGA-961" value="" style="whiteSpace=wrap;html=1;aspect=fixed;strokeColor=#E07100;strokeWidth=8;fillColor=#FFCE9F;" vertex="1" parent="1">
          <mxGeometry x="1510" y="640" width="60" height="60" as="geometry" />
        </mxCell>
        <mxCell id="ZHMwNc2xsVouACLdSVGA-963" value="" style="whiteSpace=wrap;html=1;aspect=fixed;strokeColor=#E07100;strokeWidth=8;fillColor=#FFCE9F;" vertex="1" parent="1">
          <mxGeometry x="1530" y="660" width="60" height="60" as="geometry" />
        </mxCell>
        <mxCell id="ZHMwNc2xsVouACLdSVGA-965" value="" style="whiteSpace=wrap;html=1;aspect=fixed;strokeColor=#E07100;strokeWidth=8;fillColor=#FFCE9F;" vertex="1" parent="1">
          <mxGeometry x="1550" y="680" width="60" height="60" as="geometry" />
        </mxCell>
        <mxCell id="ZHMwNc2xsVouACLdSVGA-967" value="" style="whiteSpace=wrap;html=1;aspect=fixed;strokeColor=#E07100;strokeWidth=8;fillColor=#FFCE9F;" vertex="1" parent="1">
          <mxGeometry x="1570" y="700" width="60" height="60" as="geometry" />
        </mxCell>
        <mxCell id="ZHMwNc2xsVouACLdSVGA-969" value="" style="whiteSpace=wrap;html=1;aspect=fixed;strokeColor=#E07100;strokeWidth=8;fillColor=#FFCE9F;" vertex="1" parent="1">
          <mxGeometry x="1590" y="720" width="60" height="60" as="geometry" />
        </mxCell>
        <mxCell id="ZHMwNc2xsVouACLdSVGA-971" value="" style="whiteSpace=wrap;html=1;aspect=fixed;strokeColor=#E07100;strokeWidth=8;fillColor=#FFCE9F;" vertex="1" parent="1">
          <mxGeometry x="1610" y="740" width="60" height="60" as="geometry" />
        </mxCell>
        <mxCell id="ZHMwNc2xsVouACLdSVGA-973" value="" style="whiteSpace=wrap;html=1;aspect=fixed;strokeColor=#E07100;strokeWidth=8;fillColor=#FFCE9F;" vertex="1" parent="1">
          <mxGeometry x="1630" y="760" width="60" height="60" as="geometry" />
        </mxCell>
        <mxCell id="ZHMwNc2xsVouACLdSVGA-975" value="" style="whiteSpace=wrap;html=1;aspect=fixed;strokeColor=#E07100;strokeWidth=8;fillColor=#FFCE9F;" vertex="1" parent="1">
          <mxGeometry x="1650" y="780" width="60" height="60" as="geometry" />
        </mxCell>
        <mxCell id="ZHMwNc2xsVouACLdSVGA-977" value="" style="whiteSpace=wrap;html=1;aspect=fixed;strokeColor=#E07100;strokeWidth=8;fillColor=#FFCE9F;" vertex="1" parent="1">
          <mxGeometry x="1670" y="800" width="60" height="60" as="geometry" />
        </mxCell>
      </root>
    </mxGraphModel>
  </diagram>
</mxfile>
